<svg width="35" height="34" viewBox="0 0 35 34" fill="none" xmlns="http://www.w3.org/2000/svg">
<path d="M27.8121 31.1667C28.3756 31.1667 28.9161 30.9428 29.3147 30.5443C29.7132 30.1458 29.9371 29.6052 29.9371 29.0417C29.9371 28.4781 29.7132 27.9376 29.3147 27.5391C28.9161 27.1405 28.3756 26.9167 27.8121 26.9167C27.2485 26.9167 26.708 27.1405 26.3095 27.5391C25.9109 27.9376 25.6871 28.4781 25.6871 29.0417C25.6871 29.6052 25.9109 30.1458 26.3095 30.5443C26.708 30.9428 27.2485 31.1667 27.8121 31.1667ZM13.6454 31.1667C14.209 31.1667 14.7495 30.9428 15.148 30.5443C15.5465 30.1458 15.7704 29.6052 15.7704 29.0417C15.7704 28.4781 15.5465 27.9376 15.148 27.5391C14.7495 27.1405 14.209 26.9167 13.6454 26.9167C13.0818 26.9167 12.5413 27.1405 12.1428 27.5391C11.7443 27.9376 11.5204 28.4781 11.5204 29.0417C11.5204 29.6052 11.7443 30.1458 12.1428 30.5443C12.5413 30.9428 13.0818 31.1667 13.6454 31.1667Z" fill="black" stroke="black" stroke-width="2.125" stroke-linecap="round" stroke-linejoin="round"/>
<path d="M7.27039 5.66667H31.3537L28.5204 21.25M7.27039 5.66667L10.1037 21.25H28.5204M7.27039 5.66667C7.0338 4.72175 5.85372 2.83333 3.02039 2.83333M28.5204 21.25H7.59622C5.06889 21.25 3.72872 22.3564 3.72872 24.0833C3.72872 25.8102 5.06889 26.9167 7.59622 26.9167H27.8121" stroke="black" stroke-width="2.125" stroke-linecap="round" stroke-linejoin="round"/>
</svg>
