<svg width="35" height="34" viewBox="0 0 35 34" fill="none" xmlns="http://www.w3.org/2000/svg">
<path d="M17.1871 3.54167C18.8532 3.54116 20.4756 4.07475 21.8162 5.06412C23.1568 6.05349 24.145 7.44653 24.6356 9.03879C25.1263 10.631 25.0936 12.3387 24.5424 13.911C23.9912 15.4833 22.9505 16.8375 21.5731 17.7749C23.9639 18.6518 26.0376 20.2242 27.5272 22.2897C29.0168 24.3552 29.8541 26.8192 29.9314 29.3647C29.9386 29.506 29.9176 29.6473 29.8694 29.7803C29.8213 29.9133 29.7471 30.0354 29.6512 30.1394C29.5553 30.2434 29.4395 30.3272 29.3108 30.3858C29.182 30.4445 29.0429 30.4768 28.9015 30.481C28.7601 30.4851 28.6192 30.461 28.4873 30.41C28.3553 30.359 28.2349 30.2821 28.133 30.184C28.0311 30.0858 27.9499 29.9683 27.8941 29.8383C27.8382 29.7083 27.8089 29.5685 27.8078 29.427C27.7235 26.6666 26.5676 24.0474 24.5852 22.1247C22.6027 20.2019 19.9495 19.1266 17.1878 19.1266C14.4261 19.1266 11.7728 20.2019 9.79041 22.1247C7.80797 24.0474 6.6521 26.6666 6.56774 29.427C6.55929 29.7088 6.43924 29.9757 6.234 30.169C6.02877 30.3622 5.75516 30.4661 5.47336 30.4576C5.19157 30.4492 4.92468 30.3291 4.7314 30.1239C4.53812 29.9187 4.43429 29.645 4.44274 29.3632C4.5203 26.8181 5.35776 24.3543 6.84733 22.2891C8.33691 20.2239 10.4104 18.6517 12.8011 17.7749C11.4236 16.8375 10.3829 15.4833 9.83174 13.911C9.28055 12.3387 9.24788 10.631 9.73854 9.03879C10.2292 7.44653 11.2173 6.05349 12.5579 5.06412C13.8985 4.07475 15.5209 3.54116 17.1871 3.54167ZM11.5204 11.3333C11.5204 12.8362 12.1174 14.2776 13.1801 15.3403C14.2428 16.403 15.6842 17 17.1871 17C18.69 17 20.1313 16.403 21.194 15.3403C22.2567 14.2776 22.8537 12.8362 22.8537 11.3333C22.8537 9.83044 22.2567 8.3891 21.194 7.3264C20.1313 6.26369 18.69 5.66667 17.1871 5.66667C15.6842 5.66667 14.2428 6.26369 13.1801 7.3264C12.1174 8.3891 11.5204 9.83044 11.5204 11.3333Z" fill="black"/>
</svg>
