<svg width="35" height="34" viewBox="0 0 35 34" fill="none" xmlns="http://www.w3.org/2000/svg">
<path d="M29.9371 29.75L23.7845 23.5974M23.7845 23.5974C24.8369 22.545 25.6717 21.2956 26.2413 19.9205C26.8109 18.5455 27.104 17.0717 27.104 15.5833C27.104 14.095 26.8109 12.6212 26.2413 11.2461C25.6717 9.87109 24.8369 8.62168 23.7845 7.56925C22.7321 6.51683 21.4826 5.682 20.1076 5.11243C18.7325 4.54286 17.2587 4.24971 15.7704 4.24971C14.282 4.24971 12.8083 4.54286 11.4332 5.11243C10.0581 5.682 8.80873 6.51683 7.75631 7.56925C5.63084 9.69472 4.43677 12.5775 4.43677 15.5833C4.43677 18.5892 5.63084 21.472 7.75631 23.5974C9.88178 25.7229 12.7645 26.917 15.7704 26.917C18.7763 26.917 21.659 25.7229 23.7845 23.5974Z" stroke="black" stroke-width="2.125" stroke-linecap="round" stroke-linejoin="round"/>
</svg>
