<svg width="20" height="20" viewBox="0 0 20 20" fill="none" xmlns="http://www.w3.org/2000/svg">
<g clip-path="url(#clip0_465_452)">
<path d="M16.25 18.333C16.5815 18.333 16.8994 18.2013 17.1338 17.9669C17.3683 17.7325 17.5 17.4145 17.5 17.083C17.5 16.7515 17.3683 16.4335 17.1338 16.1991C16.8994 15.9647 16.5815 15.833 16.25 15.833C15.9184 15.833 15.6005 15.9647 15.3661 16.1991C15.1317 16.4335 15 16.7515 15 17.083C15 17.4145 15.1317 17.7325 15.3661 17.9669C15.6005 18.2013 15.9184 18.333 16.25 18.333ZM7.91663 18.333C8.24815 18.333 8.56609 18.2013 8.80051 17.9669C9.03493 17.7325 9.16663 17.4145 9.16663 17.083C9.16663 16.7515 9.03493 16.4335 8.80051 16.1991C8.56609 15.9647 8.24815 15.833 7.91663 15.833C7.58511 15.833 7.26716 15.9647 7.03274 16.1991C6.79832 16.4335 6.66663 16.7515 6.66663 17.083C6.66663 17.4145 6.79832 17.7325 7.03274 17.9669C7.26716 18.2013 7.58511 18.333 7.91663 18.333Z" fill="#C4B494" stroke="#C4B494" stroke-width="2.125" stroke-linecap="round" stroke-linejoin="round"/>
<path d="M4.16663 3.33317H18.3333L16.6666 12.4998M4.16663 3.33317L5.83329 12.4998H16.6666M4.16663 3.33317C4.02746 2.77734 3.33329 1.6665 1.66663 1.6665M16.6666 12.4998H4.35829C2.87163 12.4998 2.08329 13.1507 2.08329 14.1665C2.08329 15.1823 2.87163 15.8332 4.35829 15.8332H16.25" stroke="#C4B494" stroke-width="2.125" stroke-linecap="round" stroke-linejoin="round"/>
</g>
<defs>
<clipPath id="clip0_465_452">
<rect width="20" height="20" fill="white"/>
</clipPath>
</defs>
</svg>
